P3
# 8-bit ppm - RGB
64 64
255
223 223 223 209 209 209 209 209 209 209 209 209 209 209 209 209 209 209 209 209 209 208
208 208 230 230 230 229 229 229 229 229 229 229 229 229 229 229 229 229 229 229 229 229
229 230 230 230 208 208 208 209 209 209 209 209 209 209 209 209 209 209 209 209 209 209
209 209 209 208 208 208 230 230 230 229 229 229 229 229 229 229 229 229 229 229 229 229
229 229 229 229 229 230 230 230 208 208 208 209 209 209 209 209 209 209 209 209 209 209
209 209 209 209 209 209 209 208 208 208 230 230 230 229 229 229 229 229 229 229 229 229
229 229 229 229 229 229 229 229 229 230 230 230 208 208 208 209 209 209 209 209 209 209
209 209 209 209 209 209 209 209 209 209 209 208 208 208 230 230 230 229 229 229 229 229
229 229 229 229 229 229 229 229 229 229 229 229 229 230 230 230
224 224 224 210 210 210 210 210 210 210 210 210 210 210 210 210 210 210 210 210 210 209
209 209 228 228 228 227 227 227 227 227 227 227 227 227 227 227 227 227 227 227 227 227
227 228 228 228 209 209 209 210 210 210 210 210 210 210 210 210 210 210 210 210 210 210
210 210 210 209 209 209 228 228 228 227 227 227 227 227 227 227 227 227 227 227 227 227
227 227 227 227 227 228 228 228 209 209 209 210 210 210 210 210 210 210 210 210 210 210
210 210 210 210 210 210 210 209 209 209 228 228 228 227 227 227 227 227 227 227 227 227
227 227 227 227 227 227 227 227 227 228 228 228 209 209 209 210 210 210 210 210 210 210
210 210 210 210 210 210 210 210 210 210 210 209 209 209 228 228 228 227 227 227 227 227
227 227 227 227 227 227 227 227 227 227 227 227 227 228 228 228
224 224 224 211 211 211 211 211 211 211 211 211 211 211 211 211 211 211 211 211 211 209
209 209 227 227 227 226 226 226 226 226 226 226 226 226 226 226 226 226 226 226 226 226
226 227 227 227 209 209 209 211 211 211 211 211 211 211 211 211 211 211 211 211 211 211
211 211 211 209 209 209 227 227 227 226 226 226 226 226 226 226 226 226 226 226 226 226
226 226 226 226 226 227 227 227 209 209 209 211 211 211 211 211 211 211 211 211 211 211
211 211 211 211 211 211 211 209 209 209 227 227 227 226 226 226 226 226 226 226 226 226
226 226 226 226 226 226 226 226 226 227 227 227 209 209 209 211 211 211 211 211 211 211
211 211 211 211 211 211 211 211 211 211 211 209 209 209 227 227 227 226 226 226 226 226
226 226 226 226 226 226 226 226 226 226 226 226 226 227 227 227
224 224 224 211 211 211 211 211 211 211 211 211 211 211 211 211 211 211 211 211 211 209
209 209 227 227 227 226 226 226 226 226 226 226 226 226 226 226 226 226 226 226 226 226
226 227 227 227 209 209 209 211 211 211 211 211 211 211 211 211 211 211 211 211 211 211
211 211 211 209 209 209 227 227 227 226 226 226 226 226 226 226 226 226 226 226 226 226
226 226 226 226 226 227 227 227 209 209 209 211 211 211 211 211 211 211 211 211 211 211
211 211 211 211 211 211 211 209 209 209 227 227 227 226 226 226 226 226 226 226 226 226
226 226 226 226 226 226 226 226 226 227 227 227 209 209 209 211 211 211 211 211 211 211
211 211 211 211 211 211 211 211 211 211 211 209 209 209 227 227 227 226 226 226 226 226
226 226 226 226 226 226 226 226 226 226 226 226 226 227 227 227
224 224 224 211 211 211 211 211 211 211 211 211 211 211 211 211 211 211 211 211 211 209
209 209 227 227 227 226 226 226 226 226 226 226 226 226 226 226 226 226 226 226 226 226
226 227 227 227 209 209 209 211 211 211 211 211 211 211 211 211 211 211 211 211 211 211
211 211 211 209 209 209 227 227 227 226 226 226 226 226 226 226 226 226 226 226 226 226
226 226 226 226 226 227 227 227 209 209 209 211 211 211 211 211 211 211 211 211 211 211
211 211 211 211 211 211 211 209 209 209 227 227 227 226 226 226 226 226 226 226 226 226
226 226 226 226 226 226 226 226 226 227 227 227 209 209 209 211 211 211 211 211 211 211
211 211 211 211 211 211 211 211 211 211 211 209 209 209 227 227 227 226 226 226 226 226
226 226 226 226 226 226 226 226 226 226 226 226 226 227 227 227
224 224 224 211 211 211 211 211 211 211 211 211 211 211 211 211 211 211 211 211 211 209
209 209 227 227 227 226 226 226 226 226 226 226 226 226 226 226 226 226 226 226 226 226
226 227 227 227 209 209 209 211 211 211 211 211 211 211 211 211 211 211 211 211 211 211
211 211 211 209 209 209 227 227 227 226 226 226 226 226 226 226 226 226 226 226 226 226
226 226 226 226 226 227 227 227 209 209 209 211 211 211 211 211 211 211 211 211 211 211
211 211 211 211 211 211 211 209 209 209 227 227 227 226 226 226 226 226 226 226 226 226
226 226 226 226 226 226 226 226 226 227 227 227 209 209 209 211 211 211 211 211 211 211
211 211 211 211 211 211 211 211 211 211 211 209 209 209 227 227 227 226 226 226 226 226
226 226 226 226 226 226 226 226 226 226 226 226 226 227 227 227
224 224 224 211 211 211 211 211 211 211 211 211 211 211 211 211 211 211 211 211 211 209
209 209 227 227 227 226 226 226 226 226 226 226 226 226 226 226 226 226 226 226 226 226
226 227 227 227 209 209 209 211 211 211 211 211 211 211 211 211 211 211 211 211 211 211
211 211 211 209 209 209 227 227 227 226 226 226 226 226 226 226 226 226 226 226 226 226
226 226 226 226 226 227 227 227 209 209 209 211 211 211 211 211 211 211 211 211 211 211
211 211 211 211 211 211 211 209 209 209 227 227 227 226 226 226 226 226 226 226 226 226
226 226 226 226 226 226 226 226 226 227 227 227 209 209 209 211 211 211 211 211 211 211
211 211 211 211 211 211 211 211 211 211 211 209 209 209 227 227 227 226 226 226 226 226
226 226 226 226 226 226 226 226 226 226 226 226 226 227 227 227
224 224 224 211 211 211 211 211 211 211 211 211 211 211 211 211 211 211 211 211 211 209
209 209 227 227 227 226 226 226 226 226 226 226 226 226 226 226 226 226 226 226 226 226
226 227 227 227 209 209 209 211 211 211 211 211 211 211 211 211 211 211 211 211 211 211
211 211 211 209 209 209 227 227 227 226 226 226 226 226 226 226 226 226 226 226 226 226
226 226 226 226 226 227 227 227 209 209 209 211 211 211 211 211 211 211 211 211 211 211
211 211 211 211 211 211 211 209 209 209 227 227 227 226 226 226 226 226 226 226 226 226
226 226 226 226 226 226 226 226 226 227 227 227 209 209 209 211 211 211 211 211 211 211
211 211 211 211 211 211 211 211 211 211 211 209 209 209 227 227 227 226 226 226 226 226
226 226 226 226 226 226 226 226 226 226 226 226 226 227 227 227
224 224 224 211 211 211 211 211 211 211 211 211 211 211 211 211 211 211 211 211 211 209
209 209 227 227 227 226 226 226 226 226 226 226 226 226 226 226 226 226 226 226 226 226
226 227 227 227 209 209 209 211 211 211 211 211 211 211 211 211 211 211 211 211 211 211
211 211 211 209 209 209 227 227 227 226 226 226 226 226 226 226 226 226 226 226 226 226
226 226 226 226 226 227 227 227 209 209 209 211 211 211 211 211 211 211 211 211 211 211
211 211 211 211 211 211 211 209 209 209 227 227 227 226 226 226 226 226 226 226 226 226
226 226 226 226 226 226 226 226 226 227 227 227 209 209 209 211 211 211 211 211 211 211
211 211 211 211 211 211 211 211 211 211 211 209 209 209 227 227 227 226 226 226 226 226
226 226 226 226 226 226 226 226 226 226 226 226 226 227 227 227
227 227 227 213 213 213 213 213 213 213 213 213 213 213 213 213 213 213 213 213 213 212
212 212 230 230 230 228 228 228 228 228 228 228 228 228 228 228 228 228 228 228 228 228
228 230 230 230 212 212 212 213 213 213 213 213 213 213 213 213 213 213 213 213 213 213
213 213 213 212 212 212 230 230 230 228 228 228 228 228 228 228 228 228 228 228 228 228
228 228 228 228 228 230 230 230 212 212 212 213 213 213 213 213 213 213 213 213 213 213
213 213 213 213 213 213 213 212 212 212 230 230 230 228 228 228 228 228 228 228 228 228
228 228 228 228 228 228 228 228 228 230 230 230 212 212 212 213 213 213 213 213 213 213
213 213 213 213 213 213 213 213 213 213 213 212 212 212 230 230 230 228 228 228 228 228
228 228 228 228 228 228 228 228 228 228 228 228 228 230 230 230
220 220 220 207 207 207 207 207 207 207 207 207 207 207 207 207 207 207 207 207 207 206
206 206 223 223 223 221 221 221 221 221 221 221 221 221 221 221 221 221 221 221 221 221
221 223 223 223 206 206 206 207 207 207 207 207 207 207 207 207 207 207 207 207 207 207
207 207 207 206 206 206 223 223 223 221 221 221 221 221 221 221 221 221 221 221 221 221
221 221 221 221 221 223 223 223 206 206 206 207 207 207 207 207 207 207 207 207 207 207
207 207 207 207 207 207 207 206 206 206 223 223 223 221 221 221 221 221 221 221 221 221
221 221 221 221 221 221 221 221 221 223 223 223 206 206 206 207 207 207 207 207 207 207
207 207 207 207 207 207 207 207 207 207 207 206 206 206 223 223 223 221 221 221 221 221
221 221 221 221 221 221 221 221 221 221 221 221 221 223 223 223
208 208 208 195 195 195 196 196 196 196 196 196 196 196 196 196 196 196 196 196 196 194
194 194 210 210 210 208 208 208 208 208 208 208 208 208 208 208 208 208 208 208 208 208
208 210 210 210 194 194 194 196 196 196 196 196 196 196 196 196 196 196 196 196 196 196
196 196 196 194 194 194 210 210 210 208 208 208 208 208 208 208 208 208 208 208 208 208
208 208 208 208 208 210 210 210 194 194 194 196 196 196 196 196 196 196 196 196 196 196
196 196 196 196 196 196 196 194 194 194 210 210 210 208 208 208 208 208 208 208 208 208
208 208 208 208 208 208 208 208 208 210 210 210 194 194 194 196 196 196 196 196 196 196
196 196 196 196 196 196 196 196 196 196 196 194 194 194 210 210 210 208 208 208 208 208
208 208 208 208 208 208 208 208 208 208 208 208 208 210 210 210
210 210 210 198 198 198 198 198 198 198 198 198 198 198 198 198 198 198 198 198 198 197
197 197 212 212 212 211 211 211 211 211 211 211 211 211 211 211 211 211 211 211 211 211
211 212 212 212 197 197 197 198 198 198 198 198 198 198 198 198 198 198 198 198 198 198
198 198 198 197 197 197 212 212 212 211 211 211 211 211 211 211 211 211 211 211 211 211
211 211 211 211 211 212 212 212 197 197 197 198 198 198 198 198 198 198 198 198 198 198
198 198 198 198 198 198 198 197 197 197 212 212 212 211 211 211 211 211 211 211 211 211
211 211 211 211 211 211 211 211 211 212 212 212 197 197 197 198 198 198 198 198 198 198
198 198 198 198 198 198 198 198 198 198 198 197 197 197 212 212 212 211 211 211 211 211
211 211 211 211 211 211 211 211 211 211 211 211 211 212 212 212
210 210 210 198 198 198 198 198 198 198 198 198 198 198 198 198 198 198 198 198 198 197
197 197 212 212 212 211 211 211 211 211 211 211 211 211 211 211 211 211 211 211 211 211
211 212 212 212 197 197 197 198 198 198 198 198 198 198 198 198 198 198 198 198 198 198
198 198 198 197 197 197 212 212 212 211 211 211 211 211 211 211 211 211 211 211 211 211
211 211 211 211 211 212 212 212 197 197 197 198 198 198 198 198 198 198 198 198 198 198
198 198 198 198 198 198 198 197 197 197 212 212 212 211 211 211 211 211 211 211 211 211
211 211 211 211 211 211 211 211 211 212 212 212 197 197 197 198 198 198 198 198 198 198
198 198 198 198 198 198 198 198 198 198 198 197 197 197 212 212 212 211 211 211 211 211
211 211 211 211 211 211 211 211 211 211 211 211 211 212 212 212
210 210 210 198 198 198 198 198 198 198 198 198 198 198 198 198 198 198 198 198 198 197
197 197 212 212 212 211 211 211 211 211 211 211 211 211 211 211 211 211 211 211 211 211
211 212 212 212 197 197 197 198 198 198 198 198 198 198 198 198 198 198 198 198 198 198
198 198 198 197 197 197 212 212 212 211 211 211 211 211 211 211 211 211 211 211 211 211
211 211 211 211 211 212 212 212 197 197 197 198 198 198 198 198 198 198 198 198 198 198
198 198 198 198 198 198 198 197 197 197 212 212 212 211 211 211 211 211 211 211 211 211
211 211 211 211 211 211 211 211 211 212 212 212 197 197 197 198 198 198 198 198 198 198
198 198 198 198 198 198 198 198 198 198 198 197 197 197 212 212 212 211 211 211 211 211
211 211 211 211 211 211 211 211 211 211 211 211 211 212 212 212
210 210 210 198 198 198 198 198 198 198 198 198 198 198 198 198 198 198 198 198 198 197
197 197 212 212 212 211 211 211 211 211 211 211 211 211 211 211 211 211 211 211 211 211
211 212 212 212 197 197 197 198 198 198 198 198 198 198 198 198 198 198 198 198 198 198
198 198 198 197 197 197 212 212 212 211 211 211 211 211 211 211 211 211 211 211 211 211
211 211 211 211 211 212 212 212 197 197 197 198 198 198 198 198 198 198 198 198 198 198
198 198 198 198 198 198 198 197 197 197 212 212 212 211 211 211 211 211 211 211 211 211
211 211 211 211 211 211 211 211 211 212 212 212 197 197 197 198 198 198 198 198 198 198
198 198 198 198 198 198 198 198 198 198 198 197 197 197 212 212 212 211 211 211 211 211
211 211 211 211 211 211 211 211 211 211 211 211 211 212 212 212
210 210 210 198 198 198 198 198 198 198 198 198 198 198 198 198 198 198 198 198 198 197
197 197 212 212 212 211 211 211 211 211 211 211 211 211 211 211 211 211 211 211 211 211
211 212 212 212 197 197 197 198 198 198 198 198 198 198 198 198 198 198 198 198 198 198
198 198 198 197 197 197 212 212 212 211 211 211 211 211 211 211 211 211 211 211 211 211
211 211 211 211 211 212 212 212 197 197 197 198 198 198 198 198 198 198 198 198 198 198
198 198 198 198 198 198 198 197 197 197 212 212 212 211 211 211 211 211 211 211 211 211
211 211 211 211 211 211 211 211 211 212 212 212 197 197 197 198 198 198 198 198 198 198
198 198 198 198 198 198 198 198 198 198 198 197 197 197 212 212 212 211 211 211 211 211
211 211 211 211 211 211 211 211 211 211 211 211 211 212 212 212
210 210 210 198 198 198 198 198 198 198 198 198 198 198 198 198 198 198 198 198 198 197
197 197 212 212 212 211 211 211 211 211 211 211 211 211 211 211 211 211 211 211 211 211
211 212 212 212 197 197 197 198 198 198 198 198 198 198 198 198 198 198 198 198 198 198
198 198 198 197 197 197 212 212 212 211 211 211 211 211 211 211 211 211 211 211 211 211
211 211 211 211 211 212 212 212 197 197 197 198 198 198 198 198 198 198 198 198 198 198
198 198 198 198 198 198 198 197 197 197 212 212 212 211 211 211 211 211 211 211 211 211
211 211 211 211 211 211 211 211 211 212 212 212 197 197 197 198 198 198 198 198 198 198
198 198 198 198 198 198 198 198 198 198 198 197 197 197 212 212 212 211 211 211 211 211
211 211 211 211 211 211 211 211 211 211 211 211 211 212 212 212
210 210 210 198 198 198 198 198 198 198 198 198 198 198 198 198 198 198 198 198 198 197
197 197 212 212 212 211 211 211 211 211 211 211 211 211 211 211 211 211 211 211 211 211
211 212 212 212 197 197 197 198 198 198 198 198 198 198 198 198 198 198 198 198 198 198
198 198 198 197 197 197 212 212 212 211 211 211 211 211 211 211 211 211 211 211 211 211
211 211 211 211 211 212 212 212 197 197 197 198 198 198 198 198 198 198 198 198 198 198
198 198 198 198 198 198 198 197 197 197 212 212 212 211 211 211 211 211 211 211 211 211
211 211 211 211 211 211 211 211 211 212 212 212 197 197 197 198 198 198 198 198 198 198
198 198 198 198 198 198 198 198 198 198 198 197 197 197 212 212 212 211 211 211 211 211
211 211 211 211 211 211 211 211 211 211 211 211 211 212 212 212
209 209 209 198 198 198 198 198 198 198 198 198 198 198 198 198 198 198 198 198 198 196
196 196 212 212 212 211 211 211 211 211 211 211 211 211 211 211 211 211 211 211 211 211
211 212 212 212 196 196 196 198 198 198 198 198 198 198 198 198 198 198 198 198 198 198
198 198 198 196 196 196 212 212 212 211 211 211 211 211 211 211 211 211 211 211 211 211
211 211 211 211 211 212 212 212 196 196 196 198 198 198 198 198 198 198 198 198 198 198
198 198 198 198 198 198 198 196 196 196 212 212 212 211 211 211 211 211 211 211 211 211
211 211 211 211 211 211 211 211 211 212 212 212 196 196 196 198 198 198 198 198 198 198
198 198 198 198 198 198 198 198 198 198 198 196 196 196 212 212 212 211 211 211 211 211
211 211 211 211 211 211 211 211 211 211 211 211 211 212 212 212
205 205 205 193 193 193 193 193 193 193 193 193 193 193 193 193 193 193 193 193 193 191
191 191 215 215 215 213 213 213 213 213 213 213 213 213 213 213 213 213 213 213 213 213
213 215 215 215 191 191 191 193 193 193 193 193 193 193 193 193 193 193 193 193 193 193
193 193 193 191 191 191 215 215 215 213 213 213 213 213 213 213 213 213 213 213 213 213
213 213 213 213 213 215 215 215 191 191 191 193 193 193 193 193 193 193 193 193 193 193
193 193 193 193 193 193 193 191 191 191 215 215 215 213 213 213 213 213 213 213 213 213
213 213 213 213 213 213 213 213 213 215 215 215 191 191 191 193 193 193 193 193 193 193
193 193 193 193 193 193 193 193 193 193 193 191 191 191 215 215 215 213 213 213 213 213
213 213 213 213 213 213 213 213 213 213 213 213 213 215 215 215
231 231 231 218 218 218 218 218 218 218 218 218 218 218 218 218 218 218 218 218 218 219
219 219 201 201 201 202 202 202 202 202 202 202 202 202 202 202 202 202 202 202 202 202
202 201 201 201 219 219 219 218 218 218 218 218 218 218 218 218 218 218 218 218 218 218
218 218 218 219 219 219 201 201 201 202 202 202 202 202 202 202 202 202 202 202 202 202
202 202 202 202 202 201 201 201 219 219 219 218 218 218 218 218 218 218 218 218 218 218
218 218 218 218 218 218 218 219 219 219 201 201 201 202 202 202 202 202 202 202 202 202
202 202 202 202 202 202 202 202 202 201 201 201 219 219 219 218 218 218 218 218 218 218
218 218 218 218 218 218 218 218 218 218 218 219 219 219 201 201 201 202 202 202 202 202
202 202 202 202 202 202 202 202 202 202 202 202 202 201 201 201
245 245 245 230 230 230 230 230 230 230 230 230 230 230 230 230 230 230 230 230 230 234
234 234 192 192 192 196 196 196 196 196 196 196 196 196 196 196 196 196 196 196 196 196
196 192 192 192 234 234 234 230 230 230 230 230 230 230 230 230 230 230 230 230 230 230
230 230 230 234 234 234 192 192 192 196 196 196 196 196 196 196 196 196 196 196 196 196
196 196 196 196 196 192 192 192 234 234 234 230 230 230 230 230 230 230 230 230 230 230
230 230 230 230 230 230 230 234 234 234 192 192 192 196 196 196 196 196 196 196 196 196
196 196 196 196 196 196 196 196 196 192 192 192 234 234 234 230 230 230 230 230 230 230
230 230 230 230 230 230 230 230 230 230 230 234 234 234 192 192 192 196 196 196 196 196
196 196 196 196 196 196 196 196 196 196 196 196 196 192 192 192
240 240 240 226 226 226 226 226 226 226 226 226 226 226 226 226 226 226 226 226 226 229
229 229 195 195 195 198 198 198 198 198 198 198 198 198 198 198 198 198 198 198 198 198
198 195 195 195 229 229 229 226 226 226 226 226 226 226 226 226 226 226 226 226 226 226
226 226 226 229 229 229 195 195 195 198 198 198 198 198 198 198 198 198 198 198 198 198
198 198 198 198 198 195 195 195 229 229 229 226 226 226 226 226 226 226 226 226 226 226
226 226 226 226 226 226 226 229 229 229 195 195 195 198 198 198 198 198 198 198 198 198
198 198 198 198 198 198 198 198 198 195 195 195 229 229 229 226 226 226 226 226 226 226
226 226 226 226 226 226 226 226 226 226 226 229 229 229 195 195 195 198 198 198 198 198
198 198 198 198 198 198 198 198 198 198 198 198 198 195 195 195
240 240 240 226 226 226 226 226 226 226 226 226 226 226 226 226 226 226 226 226 226 229
229 229 195 195 195 198 198 198 198 198 198 198 198 198 198 198 198 198 198 198 198 198
198 195 195 195 229 229 229 226 226 226 226 226 226 226 226 226 226 226 226 226 226 226
226 226 226 229 229 229 195 195 195 198 198 198 198 198 198 198 198 198 198 198 198 198
198 198 198 198 198 195 195 195 229 229 229 226 226 226 226 226 226 226 226 226 226 226
226 226 226 226 226 226 226 229 229 229 195 195 195 198 198 198 198 198 198 198 198 198
198 198 198 198 198 198 198 198 198 195 195 195 229 229 229 226 226 226 226 226 226 226
226 226 226 226 226 226 226 226 226 226 226 229 229 229 195 195 195 198 198 198 198 198
198 198 198 198 198 198 198 198 198 198 198 198 198 195 195 195
240 240 240 226 226 226 226 226 226 226 226 226 226 226 226 226 226 226 226 226 226 229
229 229 195 195 195 198 198 198 198 198 198 198 198 198 198 198 198 198 198 198 198 198
198 195 195 195 229 229 229 226 226 226 226 226 226 226 226 226 226 226 226 226 226 226
226 226 226 229 229 229 195 195 195 198 198 198 198 198 198 198 198 198 198 198 198 198
198 198 198 198 198 195 195 195 229 229 229 226 226 226 226 226 226 226 226 226 226 226
226 226 226 226 226 226 226 229 229 229 195 195 195 198 198 198 198 198 198 198 198 198
198 198 198 198 198 198 198 198 198 195 195 195 229 229 229 226 226 226 226 226 226 226
226 226 226 226 226 226 226 226 226 226 226 229 229 229 195 195 195 198 198 198 198 198
198 198 198 198 198 198 198 198 198 198 198 198 198 195 195 195
240 240 240 226 226 226 226 226 226 226 226 226 226 226 226 226 226 226 226 226 226 229
229 229 195 195 195 198 198 198 198 198 198 198 198 198 198 198 198 198 198 198 198 198
198 195 195 195 229 229 229 226 226 226 226 226 226 226 226 226 226 226 226 226 226 226
226 226 226 229 229 229 195 195 195 198 198 198 198 198 198 198 198 198 198 198 198 198
198 198 198 198 198 195 195 195 229 229 229 226 226 226 226 226 226 226 226 226 226 226
226 226 226 226 226 226 226 229 229 229 195 195 195 198 198 198 198 198 198 198 198 198
198 198 198 198 198 198 198 198 198 195 195 195 229 229 229 226 226 226 226 226 226 226
226 226 226 226 226 226 226 226 226 226 226 229 229 229 195 195 195 198 198 198 198 198
198 198 198 198 198 198 198 198 198 198 198 198 198 195 195 195
240 240 240 226 226 226 226 226 226 226 226 226 226 226 226 226 226 226 226 226 226 229
229 229 195 195 195 198 198 198 198 198 198 198 198 198 198 198 198 198 198 198 198 198
198 195 195 195 229 229 229 226 226 226 226 226 226 226 226 226 226 226 226 226 226 226
226 226 226 229 229 229 195 195 195 198 198 198 198 198 198 198 198 198 198 198 198 198
198 198 198 198 198 195 195 195 229 229 229 226 226 226 226 226 226 226 226 226 226 226
226 226 226 226 226 226 226 229 229 229 195 195 195 198 198 198 198 198 198 198 198 198
198 198 198 198 198 198 198 198 198 195 195 195 229 229 229 226 226 226 226 226 226 226
226 226 226 226 226 226 226 226 226 226 226 229 229 229 195 195 195 198 198 198 198 198
198 198 198 198 198 198 198 198 198 198 198 198 198 195 195 195
240 240 240 226 226 226 226 226 226 226 226 226 226 226 226 226 226 226 226 226 226 229
229 229 195 195 195 198 198 198 198 198 198 198 198 198 198 198 198 198 198 198 198 198
198 195 195 195 229 229 229 226 226 226 226 226 226 226 226 226 226 226 226 226 226 226
226 226 226 229 229 229 195 195 195 198 198 198 198 198 198 198 198 198 198 198 198 198
198 198 198 198 198 195 195 195 229 229 229 226 226 226 226 226 226 226 226 226 226 226
226 226 226 226 226 226 226 229 229 229 195 195 195 198 198 198 198 198 198 198 198 198
198 198 198 198 198 198 198 198 198 195 195 195 229 229 229 226 226 226 226 226 226 226
226 226 226 226 226 226 226 226 226 226 226 229 229 229 195 195 195 198 198 198 198 198
198 198 198 198 198 198 198 198 198 198 198 198 198 195 195 195
240 240 240 226 226 226 226 226 226 226 226 226 226 226 226 226 226 226 226 226 226 229
229 229 195 195 195 198 198 198 198 198 198 198 198 198 198 198 198 198 198 198 198 198
198 195 195 195 229 229 229 226 226 226 226 226 226 226 226 226 226 226 226 226 226 226
226 226 226 229 229 229 195 195 195 198 198 198 198 198 198 198 198 198 198 198 198 198
198 198 198 198 198 195 195 195 229 229 229 226 226 226 226 226 226 226 226 226 226 226
226 226 226 226 226 226 226 229 229 229 195 195 195 198 198 198 198 198 198 198 198 198
198 198 198 198 198 198 198 198 198 195 195 195 229 229 229 226 226 226 226 226 226 226
226 226 226 226 226 226 226 226 226 226 226 229 229 229 195 195 195 198 198 198 198 198
198 198 198 198 198 198 198 198 198 198 198 198 198 195 195 195
241 241 241 227 227 227 227 227 227 227 227 227 227 227 227 227 227 227 227 227 227 230
230 230 192 192 192 195 195 195 195 195 195 195 195 195 195 195 195 195 195 195 195 195
195 192 192 192 230 230 230 227 227 227 227 227 227 227 227 227 227 227 227 227 227 227
227 227 227 230 230 230 192 192 192 195 195 195 195 195 195 195 195 195 195 195 195 195
195 195 195 195 195 192 192 192 230 230 230 227 227 227 227 227 227 227 227 227 227 227
227 227 227 227 227 227 227 230 230 230 192 192 192 195 195 195 195 195 195 195 195 195
195 195 195 195 195 195 195 195 195 192 192 192 230 230 230 227 227 227 227 227 227 227
227 227 227 227 227 227 227 227 227 227 227 230 230 230 192 192 192 195 195 195 195 195
195 195 195 195 195 195 195 195 195 195 195 195 195 192 192 192
240 240 240 225 225 225 225 225 225 225 225 225 225 225 225 225 225 225 225 225 225 228
228 228 196 196 196 198 198 198 198 198 198 198 198 198 198 198 198 198 198 198 198 198
198 196 196 196 228 228 228 225 225 225 225 225 225 225 225 225 225 225 225 225 225 225
225 225 225 228 228 228 196 196 196 198 198 198 198 198 198 198 198 198 198 198 198 198
198 198 198 198 198 196 196 196 228 228 228 225 225 225 225 225 225 225 225 225 225 225
225 225 225 225 225 225 225 228 228 228 196 196 196 198 198 198 198 198 198 198 198 198
198 198 198 198 198 198 198 198 198 196 196 196 228 228 228 225 225 225 225 225 225 225
225 225 225 225 225 225 225 225 225 225 225 228 228 228 196 196 196 198 198 198 198 198
198 198 198 198 198 198 198 198 198 198 198 198 198 196 196 196
225 225 225 211 211 211 211 211 211 211 211 211 211 211 211 211 211 211 211 211 211 210
210 210 227 227 227 226 226 226 226 226 226 226 226 226 226 226 226 226 226 226 226 226
226 227 227 227 210 210 210 211 211 211 211 211 211 211 211 211 211 211 211 211 211 211
211 211 211 210 210 210 227 227 227 226 226 226 226 226 226 226 226 226 226 226 226 226
226 226 226 226 226 227 227 227 210 210 210 211 211 211 211 211 211 211 211 211 211 211
211 211 211 211 211 211 211 210 210 210 227 227 227 226 226 226 226 226 226 226 226 226
226 226 226 226 226 226 226 226 226 227 227 227 210 210 210 211 211 211 211 211 211 211
211 211 211 211 211 211 211 211 211 211 211 210 210 210 227 227 227 226 226 226 226 226
226 226 226 226 226 226 226 226 226 226 226 226 226 227 227 227
223 223 223 210 210 210 210 210 210 210 210 210 210 210 210 210 210 210 210 210 210 208
208 208 229 229 229 228 228 228 228 228 228 228 228 228 228 228 228 228 228 228 228 228
228 229 229 229 208 208 208 210 210 210 210 210 210 210 210 210 210 210 210 210 210 210
210 210 210 208 208 208 229 229 229 228 228 228 228 228 228 228 228 228 228 228 228 228
228 228 228 228 228 229 229 229 208 208 208 210 210 210 210 210 210 210 210 210 210 210
210 210 210 210 210 210 210 208 208 208 229 229 229 228 228 228 228 228 228 228 228 228
228 228 228 228 228 228 228 228 228 229 229 229 208 208 208 210 210 210 210 210 210 210
210 210 210 210 210 210 210 210 210 210 210 208 208 208 229 229 229 228 228 228 228 228
228 228 228 228 228 228 228 228 228 228 228 228 228 229 229 229
224 224 224 211 211 211 211 211 211 211 211 211 211 211 211 211 211 211 211 211 211 209
209 209 227 227 227 226 226 226 226 226 226 226 226 226 226 226 226 226 226 226 226 226
226 227 227 227 209 209 209 211 211 211 211 211 211 211 211 211 211 211 211 211 211 211
211 211 211 209 209 209 227 227 227 226 226 226 226 226 226 226 226 226 226 226 226 226
226 226 226 226 226 227 227 227 209 209 209 211 211 211 211 211 211 211 211 211 211 211
211 211 211 211 211 211 211 209 209 209 227 227 227 226 226 226 226 226 226 226 226 226
226 226 226 226 226 226 226 226 226 227 227 227 209 209 209 211 211 211 211 211 211 211
211 211 211 211 211 211 211 211 211 211 211 209 209 209 227 227 227 226 226 226 226 226
226 226 226 226 226 226 226 226 226 226 226 226 226 227 227 227
224 224 224 211 211 211 211 211 211 211 211 211 211 211 211 211 211 211 211 211 211 209
209 209 227 227 227 226 226 226 226 226 226 226 226 226 226 226 226 226 226 226 226 226
226 227 227 227 209 209 209 211 211 211 211 211 211 211 211 211 211 211 211 211 211 211
211 211 211 209 209 209 227 227 227 226 226 226 226 226 226 226 226 226 226 226 226 226
226 226 226 226 226 227 227 227 209 209 209 211 211 211 211 211 211 211 211 211 211 211
211 211 211 211 211 211 211 209 209 209 227 227 227 226 226 226 226 226 226 226 226 226
226 226 226 226 226 226 226 226 226 227 227 227 209 209 209 211 211 211 211 211 211 211
211 211 211 211 211 211 211 211 211 211 211 209 209 209 227 227 227 226 226 226 226 226
226 226 226 226 226 226 226 226 226 226 226 226 226 227 227 227
224 224 224 211 211 211 211 211 211 211 211 211 211 211 211 211 211 211 211 211 211 209
209 209 227 227 227 226 226 226 226 226 226 226 226 226 226 226 226 226 226 226 226 226
226 227 227 227 209 209 209 211 211 211 211 211 211 211 211 211 211 211 211 211 211 211
211 211 211 209 209 209 227 227 227 226 226 226 226 226 226 226 226 226 226 226 226 226
226 226 226 226 226 227 227 227 209 209 209 211 211 211 211 211 211 211 211 211 211 211
211 211 211 211 211 211 211 209 209 209 227 227 227 226 226 226 226 226 226 226 226 226
226 226 226 226 226 226 226 226 226 227 227 227 209 209 209 211 211 211 211 211 211 211
211 211 211 211 211 211 211 211 211 211 211 209 209 209 227 227 227 226 226 226 226 226
226 226 226 226 226 226 226 226 226 226 226 226 226 227 227 227
224 224 224 211 211 211 211 211 211 211 211 211 211 211 211 211 211 211 211 211 211 209
209 209 227 227 227 226 226 226 226 226 226 226 226 226 226 226 226 226 226 226 226 226
226 227 227 227 209 209 209 211 211 211 211 211 211 211 211 211 211 211 211 211 211 211
211 211 211 209 209 209 227 227 227 226 226 226 226 226 226 226 226 226 226 226 226 226
226 226 226 226 226 227 227 227 209 209 209 211 211 211 211 211 211 211 211 211 211 211
211 211 211 211 211 211 211 209 209 209 227 227 227 226 226 226 226 226 226 226 226 226
226 226 226 226 226 226 226 226 226 227 227 227 209 209 209 211 211 211 211 211 211 211
211 211 211 211 211 211 211 211 211 211 211 209 209 209 227 227 227 226 226 226 226 226
226 226 226 226 226 226 226 226 226 226 226 226 226 227 227 227
224 224 224 211 211 211 211 211 211 211 211 211 211 211 211 211 211 211 211 211 211 209
209 209 227 227 227 226 226 226 226 226 226 226 226 226 226 226 226 226 226 226 226 226
226 227 227 227 209 209 209 211 211 211 211 211 211 211 211 211 211 211 211 211 211 211
211 211 211 209 209 209 227 227 227 226 226 226 226 226 226 226 226 226 226 226 226 226
226 226 226 226 226 227 227 227 209 209 209 211 211 211 211 211 211 211 211 211 211 211
211 211 211 211 211 211 211 209 209 209 227 227 227 226 226 226 226 226 226 226 226 226
226 226 226 226 226 226 226 226 226 227 227 227 209 209 209 211 211 211 211 211 211 211
211 211 211 211 211 211 211 211 211 211 211 209 209 209 227 227 227 226 226 226 226 226
226 226 226 226 226 226 226 226 226 226 226 226 226 227 227 227
224 224 224 211 211 211 211 211 211 211 211 211 211 211 211 211 211 211 211 211 211 209
209 209 227 227 227 226 226 226 226 226 226 226 226 226 226 226 226 226 226 226 226 226
226 227 227 227 209 209 209 211 211 211 211 211 211 211 211 211 211 211 211 211 211 211
211 211 211 209 209 209 227 227 227 226 226 226 226 226 226 226 226 226 226 226 226 226
226 226 226 226 226 227 227 227 209 209 209 211 211 211 211 211 211 211 211 211 211 211
211 211 211 211 211 211 211 209 209 209 227 227 227 226 226 226 226 226 226 226 226 226
226 226 226 226 226 226 226 226 226 227 227 227 209 209 209 211 211 211 211 211 211 211
211 211 211 211 211 211 211 211 211 211 211 209 209 209 227 227 227 226 226 226 226 226
226 226 226 226 226 226 226 226 226 226 226 226 226 227 227 227
224 224 224 211 211 211 211 211 211 211 211 211 211 211 211 211 211 211 211 211 211 209
209 209 227 227 227 226 226 226 226 226 226 226 226 226 226 226 226 226 226 226 226 226
226 227 227 227 209 209 209 211 211 211 211 211 211 211 211 211 211 211 211 211 211 211
211 211 211 209 209 209 227 227 227 226 226 226 226 226 226 226 226 226 226 226 226 226
226 226 226 226 226 227 227 227 209 209 209 211 211 211 211 211 211 211 211 211 211 211
211 211 211 211 211 211 211 209 209 209 227 227 227 226 226 226 226 226 226 226 226 226
226 226 226 226 226 226 226 226 226 227 227 227 209 209 209 211 211 211 211 211 211 211
211 211 211 211 211 211 211 211 211 211 211 209 209 209 227 227 227 226 226 226 226 226
226 226 226 226 226 226 226 226 226 226 226 226 226 227 227 227
227 227 227 213 213 213 213 213 213 213 213 213 213 213 213 213 213 213 213 213 213 212
212 212 230 230 230 228 228 228 228 228 228 228 228 228 228 228 228 228 228 228 228 228
228 230 230 230 212 212 212 213 213 213 213 213 213 213 213 213 213 213 213 213 213 213
213 213 213 212 212 212 230 230 230 228 228 228 228 228 228 228 228 228 228 228 228 228
228 228 228 228 228 230 230 230 212 212 212 213 213 213 213 213 213 213 213 213 213 213
213 213 213 213 213 213 213 212 212 212 230 230 230 228 228 228 228 228 228 228 228 228
228 228 228 228 228 228 228 228 228 230 230 230 212 212 212 213 213 213 213 213 213 213
213 213 213 213 213 213 213 213 213 213 213 212 212 212 230 230 230 228 228 228 228 228
228 228 228 228 228 228 228 228 228 228 228 228 228 230 230 230
220 220 220 207 207 207 207 207 207 207 207 207 207 207 207 207 207 207 207 207 207 206
206 206 223 223 223 221 221 221 221 221 221 221 221 221 221 221 221 221 221 221 221 221
221 223 223 223 206 206 206 207 207 207 207 207 207 207 207 207 207 207 207 207 207 207
207 207 207 206 206 206 223 223 223 221 221 221 221 221 221 221 221 221 221 221 221 221
221 221 221 221 221 223 223 223 206 206 206 207 207 207 207 207 207 207 207 207 207 207
207 207 207 207 207 207 207 206 206 206 223 223 223 221 221 221 221 221 221 221 221 221
221 221 221 221 221 221 221 221 221 223 223 223 206 206 206 207 207 207 207 207 207 207
207 207 207 207 207 207 207 207 207 207 207 206 206 206 223 223 223 221 221 221 221 221
221 221 221 221 221 221 221 221 221 221 221 221 221 223 223 223
208 208 208 195 195 195 196 196 196 196 196 196 196 196 196 196 196 196 196 196 196 194
194 194 210 210 210 208 208 208 208 208 208 208 208 208 208 208 208 208 208 208 208 208
208 210 210 210 194 194 194 196 196 196 196 196 196 196 196 196 196 196 196 196 196 196
196 196 196 194 194 194 210 210 210 208 208 208 208 208 208 208 208 208 208 208 208 208
208 208 208 208 208 210 210 210 194 194 194 196 196 196 196 196 196 196 196 196 196 196
196 196 196 196 196 196 196 194 194 194 210 210 210 208 208 208 208 208 208 208 208 208
208 208 208 208 208 208 208 208 208 210 210 210 194 194 194 196 196 196 196 196 196 196
196 196 196 196 196 196 196 196 196 196 196 194 194 194 210 210 210 208 208 208 208 208
208 208 208 208 208 208 208 208 208 208 208 208 208 210 210 210
210 210 210 198 198 198 198 198 198 198 198 198 198 198 198 198 198 198 198 198 198 197
197 197 212 212 212 211 211 211 211 211 211 211 211 211 211 211 211 211 211 211 211 211
211 212 212 212 197 197 197 198 198 198 198 198 198 198 198 198 198 198 198 198 198 198
198 198 198 197 197 197 212 212 212 211 211 211 211 211 211 211 211 211 211 211 211 211
211 211 211 211 211 212 212 212 197 197 197 198 198 198 198 198 198 198 198 198 198 198
198 198 198 198 198 198 198 197 197 197 212 212 212 211 211 211 211 211 211 211 211 211
211 211 211 211 211 211 211 211 211 212 212 212 197 197 197 198 198 198 198 198 198 198
198 198 198 198 198 198 198 198 198 198 198 197 197 197 212 212 212 211 211 211 211 211
211 211 211 211 211 211 211 211 211 211 211 211 211 212 212 212
210 210 210 198 198 198 198 198 198 198 198 198 198 198 198 198 198 198 198 198 198 197
197 197 212 212 212 211 211 211 211 211 211 211 211 211 211 211 211 211 211 211 211 211
211 212 212 212 197 197 197 198 198 198 198 198 198 198 198 198 198 198 198 198 198 198
198 198 198 197 197 197 212 212 212 211 211 211 211 211 211 211 211 211 211 211 211 211
211 211 211 211 211 212 212 212 197 197 197 198 198 198 198 198 198 198 198 198 198 198
198 198 198 198 198 198 198 197 197 197 212 212 212 211 211 211 211 211 211 211 211 211
211 211 211 211 211 211 211 211 211 212 212 212 197 197 197 198 198 198 198 198 198 198
198 198 198 198 198 198 198 198 198 198 198 197 197 197 212 212 212 211 211 211 211 211
211 211 211 211 211 211 211 211 211 211 211 211 211 212 212 212
210 210 210 198 198 198 198 198 198 198 198 198 198 198 198 198 198 198 198 198 198 197
197 197 212 212 212 211 211 211 211 211 211 211 211 211 211 211 211 211 211 211 211 211
211 212 212 212 197 197 197 198 198 198 198 198 198 198 198 198 198 198 198 198 198 198
198 198 198 197 197 197 212 212 212 211 211 211 211 211 211 211 211 211 211 211 211 211
211 211 211 211 211 212 212 212 197 197 197 198 198 198 198 198 198 198 198 198 198 198
198 198 198 198 198 198 198 197 197 197 212 212 212 211 211 211 211 211 211 211 211 211
211 211 211 211 211 211 211 211 211 212 212 212 197 197 197 198 198 198 198 198 198 198
198 198 198 198 198 198 198 198 198 198 198 197 197 197 212 212 212 211 211 211 211 211
211 211 211 211 211 211 211 211 211 211 211 211 211 212 212 212
210 210 210 198 198 198 198 198 198 198 198 198 198 198 198 198 198 198 198 198 198 197
197 197 212 212 212 211 211 211 211 211 211 211 211 211 211 211 211 211 211 211 211 211
211 212 212 212 197 197 197 198 198 198 198 198 198 198 198 198 198 198 198 198 198 198
198 198 198 197 197 197 212 212 212 211 211 211 211 211 211 211 211 211 211 211 211 211
211 211 211 211 211 212 212 212 197 197 197 198 198 198 198 198 198 198 198 198 198 198
198 198 198 198 198 198 198 197 197 197 212 212 212 211 211 211 211 211 211 211 211 211
211 211 211 211 211 211 211 211 211 212 212 212 197 197 197 198 198 198 198 198 198 198
198 198 198 198 198 198 198 198 198 198 198 197 197 197 212 212 212 211 211 211 211 211
211 211 211 211 211 211 211 211 211 211 211 211 211 212 212 212
210 210 210 198 198 198 198 198 198 198 198 198 198 198 198 198 198 198 198 198 198 197
197 197 212 212 212 211 211 211 211 211 211 211 211 211 211 211 211 211 211 211 211 211
211 212 212 212 197 197 197 198 198 198 198 198 198 198 198 198 198 198 198 198 198 198
198 198 198 197 197 197 212 212 212 211 211 211 211 211 211 211 211 211 211 211 211 211
211 211 211 211 211 212 212 212 197 197 197 198 198 198 198 198 198 198 198 198 198 198
198 198 198 198 198 198 198 197 197 197 212 212 212 211 211 211 211 211 211 211 211 211
211 211 211 211 211 211 211 211 211 212 212 212 197 197 197 198 198 198 198 198 198 198
198 198 198 198 198 198 198 198 198 198 198 197 197 197 212 212 212 211 211 211 211 211
211 211 211 211 211 211 211 211 211 211 211 211 211 212 212 212
210 210 210 198 198 198 198 198 198 198 198 198 198 198 198 198 198 198 198 198 198 197
197 197 212 212 212 211 211 211 211 211 211 211 211 211 211 211 211 211 211 211 211 211
211 212 212 212 197 197 197 198 198 198 198 198 198 198 198 198 198 198 198 198 198 198
198 198 198 197 197 197 212 212 212 211 211 211 211 211 211 211 211 211 211 211 211 211
211 211 211 211 211 212 212 212 197 197 197 198 198 198 198 198 198 198 198 198 198 198
198 198 198 198 198 198 198 197 197 197 212 212 212 211 211 211 211 211 211 211 211 211
211 211 211 211 211 211 211 211 211 212 212 212 197 197 197 198 198 198 198 198 198 198
198 198 198 198 198 198 198 198 198 198 198 197 197 197 212 212 212 211 211 211 211 211
211 211 211 211 211 211 211 211 211 211 211 211 211 212 212 212
210 210 210 198 198 198 198 198 198 198 198 198 198 198 198 198 198 198 198 198 198 197
197 197 212 212 212 211 211 211 211 211 211 211 211 211 211 211 211 211 211 211 211 211
211 212 212 212 197 197 197 198 198 198 198 198 198 198 198 198 198 198 198 198 198 198
198 198 198 197 197 197 212 212 212 211 211 211 211 211 211 211 211 211 211 211 211 211
211 211 211 211 211 212 212 212 197 197 197 198 198 198 198 198 198 198 198 198 198 198
198 198 198 198 198 198 198 197 197 197 212 212 212 211 211 211 211 211 211 211 211 211
211 211 211 211 211 211 211 211 211 212 212 212 197 197 197 198 198 198 198 198 198 198
198 198 198 198 198 198 198 198 198 198 198 197 197 197 212 212 212 211 211 211 211 211
211 211 211 211 211 211 211 211 211 211 211 211 211 212 212 212
209 209 209 198 198 198 198 198 198 198 198 198 198 198 198 198 198 198 198 198 198 196
196 196 212 212 212 211 211 211 211 211 211 211 211 211 211 211 211 211 211 211 211 211
211 212 212 212 196 196 196 198 198 198 198 198 198 198 198 198 198 198 198 198 198 198
198 198 198 196 196 196 212 212 212 211 211 211 211 211 211 211 211 211 211 211 211 211
211 211 211 211 211 212 212 212 196 196 196 198 198 198 198 198 198 198 198 198 198 198
198 198 198 198 198 198 198 196 196 196 212 212 212 211 211 211 211 211 211 211 211 211
211 211 211 211 211 211 211 211 211 212 212 212 196 196 196 198 198 198 198 198 198 198
198 198 198 198 198 198 198 198 198 198 198 196 196 196 212 212 212 211 211 211 211 211
211 211 211 211 211 211 211 211 211 211 211 211 211 212 212 212
205 205 205 193 193 193 193 193 193 193 193 193 193 193 193 193 193 193 193 193 193 191
191 191 215 215 215 213 213 213 213 213 213 213 213 213 213 213 213 213 213 213 213 213
213 215 215 215 191 191 191 193 193 193 193 193 193 193 193 193 193 193 193 193 193 193
193 193 193 191 191 191 215 215 215 213 213 213 213 213 213 213 213 213 213 213 213 213
213 213 213 213 213 215 215 215 191 191 191 193 193 193 193 193 193 193 193 193 193 193
193 193 193 193 193 193 193 191 191 191 215 215 215 213 213 213 213 213 213 213 213 213
213 213 213 213 213 213 213 213 213 215 215 215 191 191 191 193 193 193 193 193 193 193
193 193 193 193 193 193 193 193 193 193 193 191 191 191 215 215 215 213 213 213 213 213
213 213 213 213 213 213 213 213 213 213 213 213 213 215 215 215
231 231 231 218 218 218 218 218 218 218 218 218 218 218 218 218 218 218 218 218 218 219
219 219 201 201 201 202 202 202 202 202 202 202 202 202 202 202 202 202 202 202 202 202
202 201 201 201 219 219 219 218 218 218 218 218 218 218 218 218 218 218 218 218 218 218
218 218 218 219 219 219 201 201 201 202 202 202 202 202 202 202 202 202 202 202 202 202
202 202 202 202 202 201 201 201 219 219 219 218 218 218 218 218 218 218 218 218 218 218
218 218 218 218 218 218 218 219 219 219 201 201 201 202 202 202 202 202 202 202 202 202
202 202 202 202 202 202 202 202 202 201 201 201 219 219 219 218 218 218 218 218 218 218
218 218 218 218 218 218 218 218 218 218 218 219 219 219 201 201 201 202 202 202 202 202
202 202 202 202 202 202 202 202 202 202 202 202 202 201 201 201
245 245 245 230 230 230 230 230 230 230 230 230 230 230 230 230 230 230 230 230 230 234
234 234 192 192 192 196 196 196 196 196 196 196 196 196 196 196 196 196 196 196 196 196
196 192 192 192 234 234 234 230 230 230 230 230 230 230 230 230 230 230 230 230 230 230
230 230 230 234 234 234 192 192 192 196 196 196 196 196 196 196 196 196 196 196 196 196
196 196 196 196 196 192 192 192 234 234 234 230 230 230 230 230 230 230 230 230 230 230
230 230 230 230 230 230 230 234 234 234 192 192 192 196 196 196 196 196 196 196 196 196
196 196 196 196 196 196 196 196 196 192 192 192 234 234 234 230 230 230 230 230 230 230
230 230 230 230 230 230 230 230 230 230 230 234 234 234 192 192 192 196 196 196 196 196
196 196 196 196 196 196 196 196 196 196 196 196 196 192 192 192
240 240 240 226 226 226 226 226 226 226 226 226 226 226 226 226 226 226 226 226 226 229
229 229 195 195 195 198 198 198 198 198 198 198 198 198 198 198 198 198 198 198 198 198
198 195 195 195 229 229 229 226 226 226 226 226 226 226 226 226 226 226 226 226 226 226
226 226 226 229 229 229 195 195 195 198 198 198 198 198 198 198 198 198 198 198 198 198
198 198 198 198 198 195 195 195 229 229 229 226 226 226 226 226 226 226 226 226 226 226
226 226 226 226 226 226 226 229 229 229 195 195 195 198 198 198 198 198 198 198 198 198
198 198 198 198 198 198 198 198 198 195 195 195 229 229 229 226 226 226 226 226 226 226
226 226 226 226 226 226 226 226 226 226 226 229 229 229 195 195 195 198 198 198 198 198
198 198 198 198 198 198 198 198 198 198 198 198 198 195 195 195
240 240 240 226 226 226 226 226 226 226 226 226 226 226 226 226 226 226 226 226 226 229
229 229 195 195 195 198 198 198 198 198 198 198 198 198 198 198 198 198 198 198 198 198
198 195 195 195 229 229 229 226 226 226 226 226 226 226 226 226 226 226 226 226 226 226
226 226 226 229 229 229 195 195 195 198 198 198 198 198 198 198 198 198 198 198 198 198
198 198 198 198 198 195 195 195 229 229 229 226 226 226 226 226 226 226 226 226 226 226
226 226 226 226 226 226 226 229 229 229 195 195 195 198 198 198 198 198 198 198 198 198
198 198 198 198 198 198 198 198 198 195 195 195 229 229 229 226 226 226 226 226 226 226
226 226 226 226 226 226 226 226 226 226 226 229 229 229 195 195 195 198 198 198 198 198
198 198 198 198 198 198 198 198 198 198 198 198 198 195 195 195
240 240 240 226 226 226 226 226 226 226 226 226 226 226 226 226 226 226 226 226 226 229
229 229 195 195 195 198 198 198 198 198 198 198 198 198 198 198 198 198 198 198 198 198
198 195 195 195 229 229 229 226 226 226 226 226 226 226 226 226 226 226 226 226 226 226
226 226 226 229 229 229 195 195 195 198 198 198 198 198 198 198 198 198 198 198 198 198
198 198 198 198 198 195 195 195 229 229 229 226 226 226 226 226 226 226 226 226 226 226
226 226 226 226 226 226 226 229 229 229 195 195 195 198 198 198 198 198 198 198 198 198
198 198 198 198 198 198 198 198 198 195 195 195 229 229 229 226 226 226 226 226 226 226
226 226 226 226 226 226 226 226 226 226 226 229 229 229 195 195 195 198 198 198 198 198
198 198 198 198 198 198 198 198 198 198 198 198 198 195 195 195
240 240 240 226 226 226 226 226 226 226 226 226 226 226 226 226 226 226 226 226 226 229
229 229 195 195 195 198 198 198 198 198 198 198 198 198 198 198 198 198 198 198 198 198
198 195 195 195 229 229 229 226 226 226 226 226 226 226 226 226 226 226 226 226 226 226
226 226 226 229 229 229 195 195 195 198 198 198 198 198 198 198 198 198 198 198 198 198
198 198 198 198 198 195 195 195 229 229 229 226 226 226 226 226 226 226 226 226 226 226
226 226 226 226 226 226 226 229 229 229 195 195 195 198 198 198 198 198 198 198 198 198
198 198 198 198 198 198 198 198 198 195 195 195 229 229 229 226 226 226 226 226 226 226
226 226 226 226 226 226 226 226 226 226 226 229 229 229 195 195 195 198 198 198 198 198
198 198 198 198 198 198 198 198 198 198 198 198 198 195 195 195
240 240 240 226 226 226 226 226 226 226 226 226 226 226 226 226 226 226 226 226 226 229
229 229 195 195 195 198 198 198 198 198 198 198 198 198 198 198 198 198 198 198 198 198
198 195 195 195 229 229 229 226 226 226 226 226 226 226 226 226 226 226 226 226 226 226
226 226 226 229 229 229 195 195 195 198 198 198 198 198 198 198 198 198 198 198 198 198
198 198 198 198 198 195 195 195 229 229 229 226 226 226 226 226 226 226 226 226 226 226
226 226 226 226 226 226 226 229 229 229 195 195 195 198 198 198 198 198 198 198 198 198
198 198 198 198 198 198 198 198 198 195 195 195 229 229 229 226 226 226 226 226 226 226
226 226 226 226 226 226 226 226 226 226 226 229 229 229 195 195 195 198 198 198 198 198
198 198 198 198 198 198 198 198 198 198 198 198 198 195 195 195
240 240 240 226 226 226 226 226 226 226 226 226 226 226 226 226 226 226 226 226 226 229
229 229 195 195 195 198 198 198 198 198 198 198 198 198 198 198 198 198 198 198 198 198
198 195 195 195 229 229 229 226 226 226 226 226 226 226 226 226 226 226 226 226 226 226
226 226 226 229 229 229 195 195 195 198 198 198 198 198 198 198 198 198 198 198 198 198
198 198 198 198 198 195 195 195 229 229 229 226 226 226 226 226 226 226 226 226 226 226
226 226 226 226 226 226 226 229 229 229 195 195 195 198 198 198 198 198 198 198 198 198
198 198 198 198 198 198 198 198 198 195 195 195 229 229 229 226 226 226 226 226 226 226
226 226 226 226 226 226 226 226 226 226 226 229 229 229 195 195 195 198 198 198 198 198
198 198 198 198 198 198 198 198 198 198 198 198 198 195 195 195
240 240 240 226 226 226 226 226 226 226 226 226 226 226 226 226 226 226 226 226 226 229
229 229 195 195 195 198 198 198 198 198 198 198 198 198 198 198 198 198 198 198 198 198
198 195 195 195 229 229 229 226 226 226 226 226 226 226 226 226 226 226 226 226 226 226
226 226 226 229 229 229 195 195 195 198 198 198 198 198 198 198 198 198 198 198 198 198
198 198 198 198 198 195 195 195 229 229 229 226 226 226 226 226 226 226 226 226 226 226
226 226 226 226 226 226 226 229 229 229 195 195 195 198 198 198 198 198 198 198 198 198
198 198 198 198 198 198 198 198 198 195 195 195 229 229 229 226 226 226 226 226 226 226
226 226 226 226 226 226 226 226 226 226 226 229 229 229 195 195 195 198 198 198 198 198
198 198 198 198 198 198 198 198 198 198 198 198 198 195 195 195
241 241 241 226 226 226 226 226 226 226 226 226 226 226 226 226 226 226 226 226 226 229
229 229 194 194 194 197 197 197 197 197 197 197 197 197 197 197 197 197 197 197 197 197
197 194 194 194 229 229 229 226 226 226 226 226 226 226 226 226 226 226 226 226 226 226
226 226 226 229 229 229 194 194 194 197 197 197 197 197 197 197 197 197 197 197 197 197
197 197 197 197 197 194 194 194 229 229 229 226 226 226 226 226 226 226 226 226 226 226
226 226 226 226 226 226 226 229 229 229 194 194 194 197 197 197 197 197 197 197 197 197
197 197 197 197 197 197 197 197 197 194 194 194 229 229 229 226 226 226 226 226 226 226
226 226 226 226 226 226 226 226 226 226 226 229 229 229 194 194 194 197 197 197 197 197
197 197 197 197 197 197 197 197 197 197 197 197 197 194 194 194
242 242 242 227 227 227 227 227 227 227 227 227 227 227 227 227 227 227 227 227 227 230
230 230 192 192 192 195 195 195 195 195 195 195 195 195 195 195 195 195 195 195 195 195
195 192 192 192 230 230 230 227 227 227 227 227 227 227 227 227 227 227 227 227 227 227
227 227 227 230 230 230 192 192 192 195 195 195 195 195 195 195 195 195 195 195 195 195
195 195 195 195 195 192 192 192 230 230 230 227 227 227 227 227 227 227 227 227 227 227
227 227 227 227 227 227 227 230 230 230 192 192 192 195 195 195 195 195 195 195 195 195
195 195 195 195 195 195 195 195 195 192 192 192 230 230 230 227 227 227 227 227 227 227
227 227 227 227 227 227 227 227 227 227 227 230 230 230 192 192 192 195 195 195 195 195
195 195 195 195 195 195 195 195 195 195 195 195 195 192 192 192
